<?xml version="1.0" standalone="no"?>
<!DOCTYPE svg PUBLIC "-//W3C//DTD SVG 20010904//EN"
 "http://www.w3.org/TR/2001/REC-SVG-20010904/DTD/svg10.dtd">
<svg version="1.0" xmlns="http://www.w3.org/2000/svg"
 width="512.000000pt" height="512.000000pt" viewBox="0 0 512.000000 512.000000"
 preserveAspectRatio="xMidYMid meet">
<metadata>
Created by potrace 1.11, written by Peter Selinger 2001-2013
</metadata>
<g transform="translate(0.000000,512.000000) scale(0.100000,-0.100000)"
fill="#000000" stroke="none">
<path d="M2260 4249 c-55 -10 -102 -35 -137 -71 -109 -115 -101 -267 20 -373
l49 -42 -79 -119 c-42 -66 -81 -120 -85 -122 -5 -2 -8 -8 -8 -13 0 -13 -288
-444 -457 -686 l-43 -62 -51 25 c-101 51 -213 28 -297 -60 -51 -54 -64 -85
-64 -156 0 -100 51 -176 164 -245 35 -21 64 -42 66 -47 2 -4 8 -8 12 -8 12 0
354 -222 358 -232 2 -4 8 -8 13 -8 5 0 55 -30 112 -67 56 -36 145 -94 197
-128 52 -34 110 -67 127 -74 75 -30 192 -4 256 57 95 90 98 246 7 352 l-29 33
46 59 c24 32 54 65 66 72 73 47 219 64 326 40 87 -20 109 -30 150 -68 20 -18
83 -75 141 -126 58 -51 137 -121 175 -155 39 -34 88 -77 110 -96 22 -19 42
-36 45 -39 3 -3 43 -39 90 -80 47 -41 92 -81 101 -90 9 -8 45 -40 80 -70 34
-30 73 -64 84 -75 12 -11 71 -63 131 -115 99 -87 132 -116 199 -175 120 -108
175 -155 212 -182 182 -130 452 -79 576 110 51 78 66 134 64 235 -2 78 -6 95
-39 162 -56 113 -133 184 -243 223 -60 22 -509 247 -513 258 -2 5 -7 7 -12 4
-7 -4 -874 427 -1070 533 -142 76 -171 127 -166 285 4 113 8 129 46 190 16 26
30 50 30 53 0 3 7 16 16 30 11 16 20 21 28 15 13 -10 68 -23 110 -26 84 -6
194 64 236 149 23 49 29 144 12 187 -6 15 -8 30 -4 35 4 4 1 4 -5 0 -7 -4 -13
-3 -13 3 0 22 -65 82 -143 132 -45 29 -138 89 -207 134 -69 45 -222 144 -340
220 -118 76 -217 141 -220 144 -3 3 -16 12 -29 19 -13 8 -39 22 -58 33 -38 21
-90 28 -143 18z"/>
<path d="M698 843 c-54 -18 -119 -77 -147 -132 -27 -52 -38 -131 -20 -142 8
-5 507 -9 1121 -9 l1107 0 6 21 c10 29 -14 118 -42 161 -28 42 -85 84 -140
104 -31 11 -205 13 -938 13 -793 0 -906 -2 -947 -16z"/>
<path d="M393 465 c-24 -7 -43 -11 -43 -9 0 3 -10 -4 -22 -16 -12 -11 -26 -20
-31 -20 -20 0 -101 -97 -125 -148 -13 -29 -26 -77 -29 -106 -9 -95 -168 -86
1487 -86 1660 0 1497 -10 1486 89 -11 89 -60 176 -132 233 -106 83 -21 78
-1364 77 -951 0 -1193 -3 -1227 -14z"/>
</g>
</svg>
